<svg xmlns="http://www.w3.org/2000/svg" width="64" height="64"><path d="M13 0h38a13 13 0 0 1 13 13v38a13 13 0 0 1-13 13H13A13 13 0 0 1 0 51V13A13 13 0 0 1 13 0" style="display:inline;fill:#f5f5f5;fill-opacity:1;stroke-width:.816949"/><g style="display:inline"><path d="M17.782 46.332V17.668q0-4.161-.374-5.856-.374-1.773-1.122-2.312-.673-.54-2.692-.77l-1.197-.155q-.374-.385-.374-1.156.075-.847.524-1.078 4.263.23 9.648.23H36.48q8.675 0 10.096-.23.15.693.524 5.008.448 4.238.673 5.702-.225.463-1.122.617-.823.077-1.271-.309-.898-3.39-1.945-4.931-.972-1.541-2.767-2.08-2.618-.694-5.983-.694h-5.011q-2.394 0-2.842.616-.374.617-.374 3.93v13.023q0 1.464.224 1.772.3.308 1.57.308h3.59q5.086 0 6.433-.462 1.346-.54 1.87-2.928l.523-2.62q.449-.386 1.271-.386.823 0 1.122.463-.224 6.241-.224 7.705 0 .694.224 8.091-.3.385-1.122.462-.822 0-1.271-.385l-.524-3.082q-.374-2.312-1.795-2.851t-6.506-.54h-3.59q-1.272 0-1.57.309-.225.308-.225 1.772v9.786q0 6.55 1.271 8.014.748.847 2.393 1.233 1.646.385 6.058.462 4.712 0 7.255-.848 2.618-.847 3.814-2.388 1.197-1.618 2.693-5.086.523-.385 1.271-.231.823.154 1.122.693-.374 2.466-1.421 6.088-.972 3.544-1.72 5.085-4.936-.23-18.473-.23h-8.526q-6.133 0-11.219.23-.448-.23-.523-1.001 0-.848.374-1.233l2.767-.308q2.02-.232 2.692-.694.748-.462 1.122-2.157.374-1.773.374-5.934" aria-label="E" style="font-weight:600;font-size:71.4469px;font-family:&quot;Adobe Garamond Pro&quot;;-inkscape-font-specification:&quot;Adobe Garamond Pro, Semi-Bold&quot;;fill:#1b1b1b;stroke-width:6.32618" transform="translate(.687 .688)scale(.97851)"/></g></svg>